<?xml version="1.0" standalone="no"?>
<!DOCTYPE svg PUBLIC "-//W3C//DTD SVG 20010904//EN"
 "http://www.w3.org/TR/2001/REC-SVG-20010904/DTD/svg10.dtd">
<svg version="1.0" xmlns="http://www.w3.org/2000/svg"
 width="260.000000pt" height="260.000000pt" viewBox="0 0 260.000000 260.000000"
 preserveAspectRatio="xMidYMid meet">
<metadata>
Created by potrace 1.11, written by Peter Selinger 2001-2013
</metadata>
<g transform="translate(0.000000,260.000000) scale(0.100000,-0.100000)"
fill="#000000" stroke="none">
<path d="M1166 2229 c-129 -30 -276 -146 -340 -268 -113 -216 -78 -458 93
-632 l66 -69 -73 -73 -73 -73 151 -148 c82 -82 150 -151 150 -155 0 -3 -68
-73 -150 -156 l-150 -150 75 -75 75 -75 155 155 155 155 155 -155 155 -155 75
75 75 75 -150 150 c-82 83 -150 155 -150 161 0 5 68 74 151 153 l151 144 -74
74 -73 73 66 69 c171 174 206 416 93 632 -65 124 -211 238 -344 268 -54 13
-210 12 -264 0z m134 -1059 c79 0 109 5 179 30 l85 29 -132 -132 -132 -132
-132 132 -132 132 85 -29 c70 -25 100 -30 179 -30z"/>
</g>
</svg>
